<svg xmlns="http://www.w3.org/2000/svg" xmlns:xlink="http://www.w3.org/1999/xlink" preserveAspectRatio="xMidYMid" width="7" height="9" viewBox="0 0 7 9">
  <defs>
    <style>
      .cls-1 {
        fill: #9a9a9a;
        fill-rule: evenodd;
      }
    </style>
  </defs>
  <path d="M6.682,9.000 L0.318,9.000 C0.142,9.000 -0.000,8.817 -0.000,8.591 L-0.000,3.273 L0.318,3.273 L0.636,3.273 L6.364,3.273 L6.682,3.273 L7.000,3.273 L7.000,8.591 C7.000,8.817 6.857,9.000 6.682,9.000 ZM2.333,6.409 C2.333,6.183 2.191,6.000 2.015,6.000 L1.591,6.000 C1.415,6.000 1.273,6.183 1.273,6.409 L1.273,6.954 C1.273,7.180 1.415,7.364 1.591,7.364 L2.015,7.364 C2.191,7.364 2.333,7.180 2.333,6.954 L2.333,6.409 ZM6.364,2.454 L0.636,2.454 L0.318,2.454 L-0.000,2.454 L-0.000,1.227 C-0.000,1.001 0.142,0.818 0.318,0.818 L2.121,0.818 L2.121,0.409 C2.121,0.183 2.264,-0.000 2.439,-0.000 C2.615,-0.000 2.757,0.183 2.757,0.409 L2.757,0.818 L4.242,0.818 L4.242,0.409 C4.242,0.183 4.385,-0.000 4.560,-0.000 C4.736,-0.000 4.879,0.183 4.879,0.409 L4.879,0.818 L6.682,0.818 C6.857,0.818 7.000,1.001 7.000,1.227 L7.000,2.454 L6.682,2.454 L6.364,2.454 Z" class="cls-1"/>
</svg>
