<svg xmlns="http://www.w3.org/2000/svg" xmlns:xlink="http://www.w3.org/1999/xlink" preserveAspectRatio="xMidYMid" width="7" height="9" viewBox="0 0 7 9">
  <defs>
    <style>
      .cls-1 {
        fill: #9a9a9a;
        fill-rule: evenodd;
      }
    </style>
  </defs>
  <path d="M3.500,-0.000 C1.570,-0.000 -0.000,1.462 -0.000,3.259 C-0.000,5.490 3.132,8.764 3.265,8.902 C3.391,9.032 3.609,9.032 3.734,8.902 C3.868,8.764 7.000,5.490 7.000,3.259 C7.000,1.462 5.430,-0.000 3.500,-0.000 ZM3.500,4.899 C2.529,4.899 1.739,4.164 1.739,3.259 C1.739,2.355 2.529,1.619 3.500,1.619 C4.471,1.619 5.261,2.355 5.261,3.259 C5.261,4.164 4.471,4.899 3.500,4.899 Z" class="cls-1"/>
</svg>
