<svg xmlns="http://www.w3.org/2000/svg" xmlns:xlink="http://www.w3.org/1999/xlink" preserveAspectRatio="xMidYMid" width="9" height="9" viewBox="0 0 9 9">
  <defs>
    <style>
      .cls-1 {
        fill: #9a9a9a;
        fill-rule: evenodd;
      }
    </style>
  </defs>
  <path d="M8.916,3.618 C8.578,1.849 7.151,0.422 5.382,0.084 C2.217,-0.520 -0.520,2.217 0.084,5.382 C0.422,7.151 1.849,8.578 3.618,8.916 C6.783,9.520 9.520,6.783 8.916,3.618 ZM6.585,6.585 C6.475,6.695 6.331,6.750 6.187,6.750 C6.043,6.750 5.900,6.695 5.790,6.585 L4.102,4.898 C3.997,4.792 3.937,4.649 3.937,4.500 L3.937,2.250 C3.937,1.939 4.189,1.687 4.500,1.687 C4.810,1.687 5.062,1.939 5.062,2.250 L5.062,4.267 L6.585,5.790 C6.805,6.009 6.805,6.365 6.585,6.585 Z" class="cls-1"/>
</svg>
